<svg
  width="150"
  height="40"
  view-box="0 0 150 40"
  fill="none"
  xmlns="http://www.w3.org/2000/svg"
>
  <path
    d="M29.7128 2.39058C29.435 1.46244 28.9831 0.601462 28.3359 0C18.8957 9.45547 9.39746 18.9659 0 28.3786C3.21492 28.3786 7.21754 28.3786 9.64171 28.3664C15.5006 22.535 21.9213 16.1601 27.7619 10.3195C30.009 8.07241 30.6165 5.404 29.7128 2.39058Z"
    fill="#02B14F"
  />
  <path
    d="M29.106 32.8394C28.6603 31.3617 27.7444 30.2076 26.6452 29.1634C26.2392 28.7787 25.8117 28.3605 25.8117 28.3605C25.8117 28.3605 26.2544 27.9208 26.6574 27.5178C27.4543 26.7209 28.2267 25.9027 29.0511 25.1333C31.1211 23.1977 31.979 20.8407 31.5424 18.044C31.3318 16.7006 30.7669 15.5008 29.9121 14.5818C25.2316 19.2591 20.6154 23.8724 16.0662 28.4185C19.8338 32.1982 23.6898 36.0634 27.5703 39.9592C29.3075 37.9289 29.8663 35.349 29.106 32.8394Z"
    fill="#02B14F"
  />
  <path
    d="M27.5701 39.9587C27.4846 40.0747 27.6312 39.9038 27.5701 39.9587V39.9587Z"
    fill="#02B14F"
  />
  <path
    d="M44.8902 28.4367H51.8726V31.8226H40.6372V10.5242H44.8871V28.4367H44.8902Z"
    fill="black"
  />
  <path
    d="M54.0467 12.1876C53.549 11.7113 53.3017 11.1159 53.3017 10.4015C53.3017 9.68707 53.549 9.09477 54.0467 8.61543C54.5413 8.13915 55.1641 7.89795 55.9152 7.89795C56.6662 7.89795 57.286 8.13609 57.7837 8.61543C58.2783 9.09477 58.5286 9.69012 58.5286 10.4015C58.5286 11.1129 58.2813 11.7082 57.7837 12.1876C57.286 12.6669 56.6662 12.905 55.9152 12.905C55.1641 12.905 54.5443 12.6669 54.0467 12.1876ZM58.0096 14.9201V31.8251H53.7597V14.9201H58.0096Z"
    fill="black"
  />
  <path
    d="M66.3268 18.4284V26.6047C66.3268 27.1756 66.4642 27.5878 66.7359 27.8412C67.0107 28.0946 67.4687 28.2228 68.119 28.2228H70.0943V31.8224H67.4229C63.8385 31.8224 62.0494 30.073 62.0494 26.5741V18.4284H60.0466V14.9204H62.0494V10.7407H66.3299V14.9204H70.0943V18.4284H66.3299H66.3268Z"
    fill="black"
  />
  <path
    d="M87.8567 24.6543H75.5588C75.6595 25.8756 76.0839 26.8312 76.835 27.5212C77.583 28.2142 78.505 28.5592 79.598 28.5592C81.1765 28.5592 82.3 27.8784 82.9687 26.5137H87.5544C87.069 28.141 86.1378 29.4782 84.7609 30.5254C83.3839 31.5727 81.6925 32.0978 79.6896 32.0978C78.0715 32.0978 76.6182 31.7375 75.3329 31.0139C74.0475 30.2934 73.0461 29.2706 72.3255 27.9486C71.6081 26.6266 71.2478 25.1001 71.2478 23.372C71.2478 21.644 71.602 20.0869 72.3103 18.7649C73.0186 17.4429 74.0109 16.4262 75.2871 15.7148C76.5633 15.0035 78.0287 14.6462 79.6896 14.6462C81.3505 14.6462 82.7214 14.9912 83.9854 15.6843C85.2493 16.3773 86.2324 17.3574 86.9316 18.6275C87.6308 19.8976 87.9788 21.36 87.9788 23.0056C87.9788 23.6163 87.9391 24.1658 87.8567 24.6543ZM83.5762 21.7875C83.5549 20.6883 83.161 19.809 82.3916 19.1496C81.6223 18.4901 80.6819 18.1573 79.5675 18.1573C78.5142 18.1573 77.6288 18.4779 76.9113 19.119C76.1938 19.7602 75.7511 20.6486 75.5893 21.7875H83.5762Z"
    fill="black"
  />
  <path
    d="M97.9653 18.4284H95.019V31.8224H90.7081V18.4284H88.7968V14.9204H90.7081V14.0655C90.7081 11.9894 91.2943 10.4659 92.4697 9.4889C93.6421 8.51191 95.4159 8.05394 97.7821 8.11501V11.7146C96.7502 11.6932 96.0296 11.8673 95.6266 12.2336C95.2205 12.6 95.019 13.2625 95.019 14.2182V14.9204H97.9653V18.4284Z"
    fill="black"
  />
  <path
    d="M104.16 9.24487V31.8256H99.9102V9.24487H104.16Z"
    fill="black"
  />
  <path
    d="M110.626 31.017C109.332 30.2965 108.312 29.2737 107.576 27.9517C106.837 26.6297 106.468 25.1031 106.468 23.3751C106.468 21.647 106.846 20.1205 107.607 18.7985C108.367 17.4765 109.402 16.4537 110.718 15.7301C112.034 15.0096 113.502 14.6462 115.12 14.6462C116.739 14.6462 118.207 15.0065 119.523 15.7301C120.839 16.4537 121.877 17.4734 122.634 18.7985C123.394 20.1205 123.773 21.647 123.773 23.3751C123.773 25.1031 123.382 26.6297 122.604 27.9517C121.825 29.2737 120.772 30.2965 119.447 31.017C118.122 31.7406 116.638 32.1008 114.998 32.1008C113.359 32.1008 111.921 31.7406 110.626 31.017ZM117.169 27.8143C117.847 27.4388 118.387 26.8739 118.793 26.1198C119.199 25.3687 119.401 24.4528 119.401 23.3751C119.401 21.7691 118.98 20.5326 118.14 19.6686C117.3 18.8046 116.271 18.371 115.059 18.371C113.847 18.371 112.828 18.8046 112.009 19.6686C111.188 20.5326 110.779 21.7691 110.779 23.3751C110.779 24.981 111.179 26.2175 111.979 27.0815C112.779 27.9456 113.786 28.3791 114.998 28.3791C115.768 28.3791 116.491 28.1929 117.169 27.8143Z"
    fill="black"
  />
  <path
    d="M149.401 14.9204L144.482 31.8255H139.897L136.828 20.016L133.763 31.8255H129.147L124.198 14.9204H128.508L131.485 27.7954L134.703 14.9204H139.197L142.354 27.7648L145.331 14.9204H149.401Z"
    fill="black"
  />
</svg>
